<svg xmlns="http://www.w3.org/2000/svg" width="104.81" height="104.81" viewBox="2000.06 1216.63 104.81 104.81"><g><g id="two-733" transform="matrix(1 0 0 1 2047 1263)" opacity="1"><g id="two-742" transform="matrix(1 0 0 1 -39 -38)" opacity="1"><path d="M 0.681217 3.541016 L 0.681217 82.731942 " fill="none" stroke="#C4901A" stroke-width="7.709961012220989" stroke-linecap="round" stroke-linejoin="round" stroke-miterlimit="4"/></g><g id="two-744" transform="matrix(1 0 0 1 -39 43)" opacity="1"><path d="M 0.681217 2.863241 L 82.134741 3.99454 " fill="none" stroke="#C4901A" stroke-width="7.709961012220989" stroke-linecap="round" stroke-linejoin="round" stroke-miterlimit="4"/></g><g id="two-746" transform="matrix(1 0 0 1 -16 5)" opacity="1"><path transform="matrix(1 0 0 1 0 19.53)" d="M6.60 -31.06Q6.60 -32.27 7.81 -33.11Q7.81 -33.20 7.81 -33.29Q7.81 -33.95 9.25 -35.62Q10.70 -37.29 10.88 -37.66Q12.93 -38.87 13.58 -39.06Q14.32 -38.87 14.60 -38.87H14.79Q17.48 -39.52 20.97 -38.69Q24.46 -37.85 25.85 -35.71Q26.60 -34.32 27.34 -31.99Q28.46 -28.74 28.46 -27.25Q29.02 -24.83 28.55 -22.79L28.46 -21.86Q28.46 -21.48 27.99 -21.11Q27.53 -20.74 26.92 -20.79Q26.32 -20.83 25.85 -20.32Q25.39 -19.81 23.95 -19.81Q22.51 -19.81 22.41 -20.65Q22.13 -20.74 21.53 -21.30Q20.93 -21.86 20.93 -22.13L20.46 -22.79Q20.46 -22.97 20.09 -23.34Q19.25 -25.02 19.44 -25.95Q19.90 -28.36 19.72 -28.55Q19.72 -29.95 18.79 -31.34Q18.69 -31.43 18.46 -31.48Q18.23 -31.53 17.86 -31.62Q17.67 -32.27 17.48 -32.27Q16.83 -32.09 16.09 -31.25Q14.79 -27.62 14.51 -26.41L13.95 -20.74V-16.46Q14.14 -13.11 14.69 -12.37Q14.69 -12.00 15.07 -11.07Q15.16 -9.86 17.02 -6.79L17.48 -6.23Q17.95 -4.93 19.07 -4.93Q20.18 -4.93 22.23 -7.53Q22.13 -7.81 23.44 -9.77Q24.74 -11.53 27.53 -11.16Q28.74 -10.97 28.74 -9.77Q28.83 -8.93 28.18 -5.58Q27.25 -4.65 27.25 -3.72Q26.60 -2.05 26.60 -1.86Q26.32 -1.86 26.04 -1.58L25.57 -0.65Q25.20 -0.65 25.11 -0.28Q24.09 0.93 23.71 0.93Q23.44 1.21 22.23 1.21Q20.46 1.95 19.62 1.95L18.04 2.05L17.02 1.67L16.18 1.58Q15.07 1.12 14.46 1.16Q13.86 1.21 13.58 1.07Q13.30 0.93 12.83 0.56Q11.72 -0.37 11.39 -0.37Q11.07 -0.37 10.32 -0.93Q9.58 -1.12 9.11 -1.58L8.74 -2.51Q8.93 -3.16 8.56 -3.25Q7.35 -3.25 7.16 -3.72L6.60 -4.46Q6.60 -5.21 5.86 -6.42L4.74 -9.77Q4.56 -9.95 4.74 -10.42V-12.09L3.63 -19.34V-20.65Q4.46 -23.71 4.46 -23.81Q4.37 -25.85 5.39 -27.43Q5.39 -29.20 6.60 -31.06Z" fill="#C4901A" stroke="none" fill-rule="nonzero"/></g><g id="two-748" transform="matrix(1 0 0 1 -35 -34)" opacity="1"><path d="M 2.337712 2.934926 L 78.134741 2.934926 " fill="none" stroke="#C4901A" stroke-width="15.419922024441979" stroke-linecap="round" stroke-linejoin="round" stroke-miterlimit="4"/></g><g id="two-750" transform="matrix(1 0 0 1 42 -30)" opacity="1"><path d="M 3.397339 4.591421 L 3.397339 69.07546 " fill="none" stroke="#C4901A" stroke-width="15.419922024441979" stroke-linecap="round" stroke-linejoin="round" stroke-miterlimit="4"/></g><g id="two-752" transform="matrix(1 0 0 1 46 12)" opacity="1"><path d="M 2.339158 5.977443 L 2.339158 33.926049 " fill="none" stroke="#C4901A" stroke-width="7.709961012220989" stroke-linecap="round" stroke-linejoin="round" stroke-miterlimit="4"/></g></g></g></svg>